# xmcd CD database file
#
# Track frame offsets:
#	150
#	16987
#	34227
#	47297
#	62597
#	80795
#	106735
#	121922
#	136990
#	151477
#	170460
#	185217
#	202927
#
# Disc length: 2852 seconds
#
# Revision: 3
# Processed by: cddbd v1.5.2PL0 Copyright (c) Steve Scherf et al.
# Submitted via: ACXtractor (MTCDDB.DLL V2003.07.15)
#
DISCID=a70b220d
DTITLE=Roy Rogers - Slide of Hand
DYEAR=1993
DGENRE=Blues
TTITLE0=Don't Give It Up
TTITLE1=Bad Situation
TTITLE2=Don't Say A Word
TTITLE3=Stones In My Passway
TTITLE4=Cure For An Achin' Heart
TTITLE5=Mellow Apples
TTITLE6=Slide Of Hand
TTITLE7=Make Your Paradise
TTITLE8=Rockin' At The Hey Hey
TTITLE9=Down Home Girl
TTITLE10=Work Hard For The Money
TTITLE11=Change Of The Season
TTITLE12=Bull Hog Grind
EXTD=ID3G:  17 YEAR: 1993
EXTT0=
EXTT1=
EXTT2=
EXTT3=
EXTT4=
EXTT5=
EXTT6=
EXTT7=
EXTT8=
EXTT9=
EXTT10=
EXTT11=
EXTT12=
PLAYORDER=
